<?xml version="1.0" standalone="no"?><!DOCTYPE svg PUBLIC "-//W3C//DTD SVG 1.1//EN" "http://www.w3.org/Graphics/SVG/1.1/DTD/svg11.dtd"><svg class="icon" height="512" viewBox="0 0 1024 1024" version="1.1" style="fill:#ffffff" xmlns="http://www.w3.org/2000/svg"><path d="M867.2 800H960l-160 160v-92.8a67.2 67.2 0 0 1 67.2-67.2zM892.8 64H259.2A67.2 67.2 0 0 0 192 131.2v129.408a293.824 293.824 0 0 1 64-55.008V128h640v640h64V131.2A67.2 67.2 0 0 0 892.8 64zM256 752.256l-64 64V892.8A67.2 67.2 0 0 0 259.2 960H768v-64H256z" fill="" /><path d="M800 352V288h-146.592a291.2 291.2 0 0 1 32.576 64zM702.592 480H800v-64h-98.464A292.352 292.352 0 0 1 704 452c0 9.44-0.544 18.784-1.408 28zM800 608v-64h-111.072a290.528 290.528 0 0 1-30.496 64zM800 736v-64h-196.608a291.2 291.2 0 0 1-124.8 64z" fill="" /><path d="M226.304 583.968L66.88 743.392l53.728 53.728 159.424-159.424a228.448 228.448 0 1 0-53.728-53.728z m26.496-131.968a159.232 159.232 0 1 1 159.2 159.2A159.424 159.424 0 0 1 252.8 452z" fill="" /></svg>